<?xml version="1.0" ?><svg width="100%" height="100%" viewBox="0 0 32 32" xmlns="http://www.w3.org/2000/svg"><defs><style>.cls-1{fill:#5233ff;}.cls-2{fill:#ff64c8;}</style></defs><title/><g data-name="Layer 2" id="Layer_2"><path class="cls-1" d="M30,15a3,3,0,0,1-2.36,2.93A12,12,0,0,1,7.51,23.49a11.88,11.88,0,0,1-3.15-5.56A3,3,0,0,1,2,15a3,3,0,0,1,3-3H27A3,3,0,0,1,30,15Z"/><circle class="cls-2" cx="11" cy="7" r="3"/><circle class="cls-2" cx="20" cy="6" r="4"/><path class="cls-2" d="M28,27a3,3,0,0,1-3,3H7a3,3,0,0,1-1.42-5.65c.17.19.34.37.52.55A14.33,14.33,0,0,0,7.34,26a13.39,13.39,0,0,0,3.45,2,14.07,14.07,0,0,0,10.42,0,13.39,13.39,0,0,0,3.45-2,14.33,14.33,0,0,0,1.24-1.1c.18-.18.35-.36.52-.55A3,3,0,0,1,28,27Z"/></g></svg>