<svg version="1.1" id="Uploaded to svgrepo.com" xmlns="http://www.w3.org/2000/svg" xmlns:xlink="http://www.w3.org/1999/xlink" x="0px" y="0px"
	 width="32px" height="32px" viewBox="0 0 32 32" style="enable-background:new 0 0 32 32;" xml:space="preserve">
<style type="text/css">
	.bentblocks_een{fill:#0B1719;}
</style>
<path class="bentblocks_een" d="M16,14c-2.761,0-5,2.239-5,5s2.239,5,5,5s5-2.239,5-5S18.761,14,16,14z M16,22c-1.654,0-3-1.346-3-3
	c0-1.654,1.346-3,3-3c1.654,0,3,1.346,3,3C19,20.654,17.654,22,16,22z M26,4H6C4.9,4,4,4.9,4,6c0,1.1,0,20,0,20c0,1.1,0.9,2,2,2h20
	c1.1,0,2-0.9,2-2c0,0,0-18.9,0-20C28,4.9,27.1,4,26,4z M6,9V6h20v3v3h-4c0-2.206-1.794-4-4-4h-4c-2.206,0-4,1.794-4,4H6V9z M26,26H6
	V14h4c1.1,0,2-0.9,2-2c0-1.1,0.9-2,2-2h4c1.1,0,2,0.9,2,2c0,1.1,0.9,2,2,2h4V26z M22,16h2v2h-2V16z"/>
</svg>